<svg version="1.2" baseProfile="tiny-ps" xmlns="http://www.w3.org/2000/svg" viewBox="0 0 124 24" width="124" height="24">
	<title>logo-svg</title>
	<style>
		tspan { white-space:pre }
		.shp0 { fill: #32675c } 
	</style>
	<path id="Layer" fill-rule="evenodd" class="shp0" d="M5.86 18.71C2.42 18.71 0.46 17.31 0 14.51L3.72 13.66C3.95 14.72 4.67 15.25 5.86 15.25C6.67 15.25 7.07 15.04 7.07 14.61C7.07 14.57 7.07 14.54 7.06 14.51C7.06 14.47 7.05 14.44 7.03 14.41C7.02 14.38 7 14.35 6.98 14.32C6.96 14.29 6.94 14.27 6.91 14.25C6.81 14.16 6.57 14.05 6.2 13.91L4.72 13.37L4.29 13.22C4 13.12 3.76 13.03 3.59 12.95C3.41 12.88 3.16 12.76 2.83 12.59C2.5 12.43 2.23 12.25 2.01 12.06C1.8 11.87 1.57 11.65 1.34 11.39C1.11 11.13 0.94 10.84 0.82 10.5C0.7 10.16 0.64 9.79 0.64 9.39C0.64 8.12 1.15 7.08 2.16 6.29C3.17 5.49 4.43 5.09 5.96 5.09C8.5 5.09 10.23 6.2 11.12 8.42L7.42 9.47C7.09 8.77 6.59 8.42 5.91 8.42C5.36 8.42 5.09 8.63 5.09 9.04C5.09 9.08 5.09 9.12 5.1 9.15C5.11 9.19 5.12 9.22 5.14 9.25C5.16 9.29 5.18 9.32 5.2 9.34C5.23 9.37 5.26 9.4 5.29 9.42C5.42 9.52 5.64 9.61 5.96 9.71L7.4 10.31C10.08 11.24 11.46 12.63 11.54 14.48C11.54 15.86 11 16.91 9.93 17.63C8.85 18.35 7.5 18.71 5.86 18.71L5.86 18.71ZM17.49 18.71C14.47 18.71 12.95 16.81 12.95 13.02L12.95 5.37L18.06 5.37L18.06 12.52C18.06 14 18.58 14.73 19.6 14.73C20.61 14.73 21.12 14 21.12 12.52L21.12 5.37L26.23 5.37L26.23 18.44L21.12 18.44L21.12 16.82C20.34 18.08 19.13 18.71 17.49 18.71L17.49 18.71ZM33.6 18.44L28.48 18.44L28.48 5.37L33.6 5.37L33.6 6.98C34.37 5.72 35.58 5.09 37.22 5.09C40.25 5.09 41.76 6.99 41.76 10.78L41.76 18.44L36.65 18.44L36.65 11.28C36.65 9.81 36.13 9.07 35.11 9.07C34.1 9.07 33.6 9.81 33.6 11.28L33.6 18.44ZM48.98 18.44L43.87 18.44L43.87 5.37L48.98 5.37L48.98 6.98C49.76 5.72 50.96 5.09 52.6 5.09C55.63 5.09 57.14 6.99 57.14 10.78L57.14 18.44L52.03 18.44L52.03 11.28C52.03 9.81 51.52 9.07 50.49 9.07C49.48 9.07 48.98 9.81 48.98 11.28L48.98 18.44ZM59.94 24L62.97 17.17L57.54 5.37L63.12 5.37L65.38 12.05L67.91 5.37L73.25 5.37L64.96 24L59.94 24ZM78.63 18.71C75.19 18.71 73.24 17.31 72.77 14.51L76.49 13.66C76.73 14.72 77.44 15.25 78.63 15.25C79.44 15.25 79.84 15.04 79.84 14.61C79.85 14.57 79.84 14.54 79.84 14.51C79.83 14.47 79.82 14.44 79.81 14.41C79.79 14.38 79.77 14.35 79.75 14.32C79.73 14.29 79.71 14.27 79.68 14.25C79.58 14.16 79.34 14.05 78.98 13.91L77.49 13.37L77.07 13.22C76.77 13.12 76.53 13.03 76.36 12.96C76.18 12.88 75.93 12.76 75.6 12.6C75.27 12.43 75 12.25 74.78 12.06C74.57 11.87 74.34 11.65 74.11 11.39C73.88 11.13 73.71 10.84 73.59 10.5C73.48 10.16 73.42 9.79 73.42 9.39C73.42 8.12 73.92 7.08 74.93 6.29C75.94 5.49 77.21 5.09 78.73 5.09C81.28 5.09 83 6.2 83.89 8.42L80.19 9.47C79.86 8.77 79.36 8.42 78.68 8.42C78.13 8.42 77.86 8.63 77.86 9.04C77.86 9.08 77.86 9.12 77.87 9.15C77.88 9.19 77.89 9.22 77.91 9.25C77.93 9.29 77.95 9.32 77.97 9.34C78 9.37 78.03 9.4 78.06 9.42C78.19 9.52 78.41 9.61 78.73 9.71L80.17 10.31C82.85 11.24 84.23 12.63 84.31 14.48C84.31 15.86 83.77 16.91 82.7 17.63C81.62 18.35 80.27 18.71 78.63 18.71L78.63 18.71ZM88.43 4.57C87.52 4.57 86.81 4.36 86.32 3.93C85.82 3.5 85.57 2.95 85.57 2.29C85.57 1.61 85.81 1.06 86.29 0.63C86.77 0.21 87.49 0 88.43 0C89.37 0 90.08 0.21 90.56 0.63C91.04 1.06 91.28 1.61 91.28 2.28C91.28 2.95 91.03 3.5 90.54 3.93C90.04 4.36 89.34 4.57 88.43 4.57ZM85.87 18.44L85.87 5.37L90.98 5.37L90.98 18.44L85.87 18.44ZM98.72 18.71C96.97 18.71 95.51 18.07 94.34 16.78C93.18 15.5 92.59 13.87 92.59 11.9C92.59 9.93 93.18 8.3 94.34 7.02C95.51 5.74 96.97 5.09 98.72 5.09C100.46 5.09 101.7 5.73 102.45 7.01L102.45 0.47L107.56 0.47L107.56 18.44L102.45 18.44L102.45 16.82C101.7 18.08 100.46 18.71 98.72 18.71L98.72 18.71ZM100.11 14.81C100.84 14.81 101.42 14.53 101.86 13.99C102.3 13.44 102.52 12.75 102.52 11.9C102.52 11.06 102.3 10.36 101.86 9.81C101.42 9.27 100.84 8.99 100.11 8.99C99.38 8.99 98.8 9.27 98.35 9.81C97.92 10.36 97.71 11.06 97.71 11.9C97.71 12.75 97.93 13.44 98.36 13.99C98.8 14.53 99.38 14.81 100.11 14.81ZM116.81 18.71C114.46 18.71 112.6 18.07 111.21 16.78C109.83 15.5 109.14 13.89 109.14 11.95C109.14 10.06 109.8 8.45 111.1 7.11C112.41 5.76 114.19 5.09 116.44 5.09C118.54 5.09 120.26 5.69 121.61 6.88C122.96 8.07 123.64 9.7 123.64 11.75C123.64 12.23 123.59 12.62 123.51 12.92L113.91 12.92C113.91 13.33 114.22 13.76 114.84 14.21C115.46 14.66 116.27 14.88 117.26 14.88C118.56 14.88 119.74 14.46 120.78 13.62L122.89 16.45C121.44 17.95 119.41 18.71 116.81 18.71ZM118.23 9.17C117.73 8.84 117.14 8.67 116.46 8.67C115.79 8.67 115.2 8.83 114.7 9.16C114.21 9.48 113.94 9.95 113.91 10.56L119.02 10.56C118.99 9.96 118.72 9.5 118.23 9.17Z" />
</svg>